<svg width="50" height="50" viewBox="0 0 50 50" fill="none" xmlns="http://www.w3.org/2000/svg">
<path d="M43.75 3.125H6.25C5.4212 3.125 4.62634 3.45424 4.04029 4.04029C3.45424 4.62634 3.125 5.4212 3.125 6.25V43.75C3.125 44.5788 3.45424 45.3737 4.04029 45.9597C4.62634 46.5458 5.4212 46.875 6.25 46.875H43.75C44.5788 46.875 45.3737 46.5458 45.9597 45.9597C46.5458 45.3737 46.875 44.5788 46.875 43.75V6.25C46.875 5.4212 46.5458 4.62634 45.9597 4.04029C45.3737 3.45424 44.5788 3.125 43.75 3.125ZM31.25 35.9375L29.0406 33.7281L36.2063 26.5625H9.375V23.4375H36.2063L29.0406 16.2719L31.25 14.0625L42.1875 25L31.25 35.9375Z" fill="black"/>
</svg>
