<svg width="50" height="50" viewBox="0 0 50 50" fill="none" xmlns="http://www.w3.org/2000/svg">
<path d="M32.2917 29.1667H30.6458L30.0625 28.6042C32.1747 26.1542 33.3356 23.0264 33.3333 19.7917C33.3333 17.1134 32.5391 14.4952 31.0512 12.2683C29.5632 10.0414 27.4483 8.30573 24.9738 7.2808C22.4994 6.25586 19.7766 5.98769 17.1498 6.5102C14.523 7.03271 12.1101 8.32242 10.2163 10.2163C8.32243 12.1101 7.03271 14.523 6.51021 17.1498C5.9877 19.7766 6.25587 22.4994 7.2808 24.9738C8.30574 27.4483 10.0414 29.5632 12.2683 31.0511C14.4952 32.5391 17.1134 33.3333 19.7917 33.3333C23.1458 33.3333 26.2292 32.1042 28.6042 30.0625L29.1667 30.6458V32.2917L39.5833 42.6875L42.6875 39.5833L32.2917 29.1667ZM19.7917 29.1667C14.6042 29.1667 10.4167 24.9792 10.4167 19.7917C10.4167 14.6042 14.6042 10.4167 19.7917 10.4167C24.9792 10.4167 29.1667 14.6042 29.1667 19.7917C29.1667 24.9792 24.9792 29.1667 19.7917 29.1667Z" fill="black"/>
</svg>
