<svg width="40" height="40" viewBox="0 0 40 40" fill="none" xmlns="http://www.w3.org/2000/svg">
<path d="M6.66667 33.3333C5.75 33.3333 4.96555 33.0072 4.31333 32.355C3.66111 31.7028 3.33444 30.9178 3.33333 30V10C3.33333 9.08333 3.66 8.29889 4.31333 7.64666C4.96667 6.99444 5.75111 6.66778 6.66667 6.66666H33.3333C34.25 6.66666 35.035 6.99333 35.6883 7.64666C36.3417 8.3 36.6678 9.08444 36.6667 10V30C36.6667 30.9167 36.3406 31.7017 35.6883 32.355C35.0361 33.0083 34.2511 33.3344 33.3333 33.3333H6.66667ZM20 21.6667L6.66667 13.3333V30H33.3333V13.3333L20 21.6667ZM20 18.3333L33.3333 10H6.66667L20 18.3333ZM6.66667 13.3333V10V30V13.3333Z" fill="black"/>
</svg>
