<svg width="50" height="50" viewBox="0 0 50 50" fill="none" xmlns="http://www.w3.org/2000/svg">
<g opacity="0.2">
<path d="M31.8475 43.0325C31.8475 44.3586 31.3207 45.6304 30.3831 46.568C29.4454 47.5057 28.1736 48.0325 26.8475 48.0325C25.5215 48.0325 24.2497 47.5057 23.312 46.568C22.3743 45.6304 21.8475 44.3586 21.8475 43.0325C21.8475 41.7064 22.3743 40.4346 23.312 39.497C24.2497 38.5593 25.5215 38.0325 26.8475 38.0325C28.1736 38.0325 29.4454 38.5593 30.3831 39.497C31.3207 40.4346 31.8475 41.7064 31.8475 43.0325Z" fill="black"/>
<path fill-rule="evenodd" clip-rule="evenodd" d="M26.775 14.4125C25.1 14.4125 23.6625 14.9125 22.65 15.6275C21.675 16.3175 21.1925 17.12 21.0525 17.8125C20.8457 18.7382 20.2842 19.5459 19.4887 20.0624C18.6931 20.5788 17.7269 20.7629 16.7971 20.5752C15.8674 20.3874 15.0483 19.8427 14.5156 19.0579C13.9829 18.2732 13.7789 17.3109 13.9475 16.3775C14.515 13.5625 16.26 11.265 18.47 9.70251C20.77 8.07751 23.685 7.16251 26.775 7.16251C33.1675 7.16251 39.795 11.4375 39.795 18.3025C39.795 22.2775 37.4325 25.4925 34.3725 27.3675C33.9664 27.616 33.5153 27.7821 33.045 27.8563C32.5747 27.9305 32.0944 27.9114 31.6315 27.7999C31.1686 27.6885 30.7322 27.487 30.3471 27.2069C29.9621 26.9268 29.636 26.5736 29.3875 26.1675C29.139 25.7614 28.9729 25.3103 28.8987 24.84C28.8245 24.3697 28.8437 23.8894 28.9551 23.4265C29.0665 22.9636 29.268 22.5272 29.5481 22.1421C29.8282 21.7571 30.1814 21.431 30.5875 21.1825C32.0125 20.31 32.545 19.1975 32.545 18.3025C32.545 16.8675 30.7575 14.4125 26.775 14.4125Z" fill="black"/>
<path fill-rule="evenodd" clip-rule="evenodd" d="M26.775 24.075C28.775 24.075 30.4 25.695 30.4 27.7V31.455C30.4 32.4164 30.0181 33.3385 29.3383 34.0183C28.6585 34.6981 27.7364 35.08 26.775 35.08C25.8136 35.08 24.8916 34.6981 24.2118 34.0183C23.5319 33.3385 23.15 32.4164 23.15 31.455V27.7C23.15 25.7 24.7725 24.075 26.775 24.075Z" fill="black"/>
<path fill-rule="evenodd" clip-rule="evenodd" d="M35.5975 22.415C35.8424 22.8237 36.0043 23.2766 36.074 23.7479C36.1437 24.2192 36.1199 24.6996 36.0038 25.1616C35.8877 25.6237 35.6816 26.0583 35.3974 26.4407C35.1133 26.823 34.7565 27.1456 34.3475 27.39L28.6375 30.8075C27.8127 31.3015 26.8254 31.4476 25.8929 31.2136C24.9604 30.9797 24.159 30.3848 23.665 29.56C23.1711 28.7352 23.025 27.7479 23.2589 26.8154C23.4929 25.8829 24.0877 25.0815 24.9125 24.5875L30.625 21.1675C31.0336 20.923 31.4863 20.7614 31.9573 20.6919C32.4284 20.6224 32.9085 20.6464 33.3702 20.7625C33.832 20.8786 34.2663 21.0845 34.6485 21.3684C35.0307 21.6524 35.3531 22.0089 35.5975 22.4175" fill="black"/>
</g>
<path d="M27.5 40.625C27.5 41.4538 27.1708 42.2487 26.5847 42.8347C25.9987 43.4208 25.2038 43.75 24.375 43.75C23.5462 43.75 22.7513 43.4208 22.1653 42.8347C21.5792 42.2487 21.25 41.4538 21.25 40.625C21.25 39.7962 21.5792 39.0013 22.1653 38.4153C22.7513 37.8292 23.5462 37.5 24.375 37.5C25.2038 37.5 25.9987 37.8292 26.5847 38.4153C27.1708 39.0013 27.5 39.7962 27.5 40.625Z" fill="black"/>
<path fill-rule="evenodd" clip-rule="evenodd" d="M24.275 10.1625C22.2575 10.1625 20.465 10.7625 19.1425 11.6975C17.8675 12.5975 17.08 13.7625 16.8375 14.9675C16.793 15.2129 16.7 15.4469 16.5639 15.6559C16.4279 15.8648 16.2515 16.0446 16.0451 16.1846C15.8387 16.3245 15.6065 16.4219 15.362 16.4711C15.1175 16.5202 14.8657 16.5201 14.6213 16.4707C14.3769 16.4213 14.1447 16.3237 13.9385 16.1835C13.7323 16.0433 13.5561 15.8634 13.4202 15.6542C13.2844 15.4451 13.1916 15.211 13.1474 14.9656C13.1031 14.7202 13.1083 14.4684 13.1625 14.225C13.6275 11.92 15.0675 9.985 16.9775 8.635C18.9675 7.23 21.5275 6.41 24.275 6.41C30.0875 6.41 35.545 10.2475 35.545 15.8025C35.545 19.0325 33.625 21.7425 30.96 23.375C30.5357 23.6349 30.0254 23.7156 29.5416 23.5993C29.0578 23.4831 28.6399 23.1793 28.38 22.755C28.1201 22.3307 28.0394 21.8204 28.1557 21.3366C28.2719 20.8528 28.5757 20.4349 29 20.175C30.8225 19.06 31.795 17.4425 31.795 15.8025C31.795 13.055 28.84 10.1625 24.275 10.1625ZM24.275 23.325C24.7723 23.325 25.2492 23.5225 25.6008 23.8742C25.9525 24.2258 26.15 24.7027 26.15 25.2V28.955C26.15 29.4523 25.9525 29.9292 25.6008 30.2808C25.2492 30.6325 24.7723 30.83 24.275 30.83C23.7777 30.83 23.3008 30.6325 22.9492 30.2808C22.5975 29.9292 22.4 29.4523 22.4 28.955V25.2C22.4 24.7027 22.5975 24.2258 22.9492 23.8742C23.3008 23.5225 23.7777 23.325 24.275 23.325Z" fill="black"/>
<path fill-rule="evenodd" clip-rule="evenodd" d="M31.595 20.815C31.7216 21.0263 31.8054 21.2604 31.8415 21.504C31.8776 21.7476 31.8653 21.996 31.8054 22.2349C31.7455 22.4738 31.6392 22.6985 31.4924 22.8963C31.3456 23.0941 31.1613 23.261 30.95 23.3875L25.2375 26.8075C25.0261 26.9392 24.7906 27.0275 24.5447 27.0672C24.2988 27.1068 24.0475 27.0971 23.8054 27.0386C23.5633 26.9801 23.3353 26.8739 23.1347 26.7263C22.9341 26.5786 22.7649 26.3925 22.637 26.1788C22.5091 25.965 22.4251 25.7279 22.3899 25.4814C22.3546 25.2348 22.3689 24.9837 22.4318 24.7427C22.4946 24.5017 22.6049 24.2756 22.7561 24.0777C22.9074 23.8798 23.0965 23.714 23.3125 23.59L29.025 20.17C29.4514 19.9151 29.9616 19.8399 30.4434 19.9608C30.9253 20.0817 31.3395 20.389 31.595 20.815Z" fill="black"/>
</svg>
