<svg width="40" height="40" viewBox="0 0 40 40" fill="none" xmlns="http://www.w3.org/2000/svg">
<path d="M20 3.75C16.7861 3.75 13.6443 4.70305 10.972 6.48862C8.29969 8.27419 6.21689 10.8121 4.98696 13.7814C3.75704 16.7507 3.43524 20.018 4.06225 23.1702C4.68926 26.3224 6.23692 29.2179 8.50952 31.4905C10.7821 33.7631 13.6776 35.3107 16.8298 35.9378C19.982 36.5648 23.2493 36.243 26.2186 35.013C29.1879 33.7831 31.7258 31.7003 33.5114 29.028C35.297 26.3557 36.25 23.2139 36.25 20C36.245 15.6918 34.5314 11.5614 31.485 8.515C28.4386 5.4686 24.3083 3.75496 20 3.75ZM33.75 20C33.7511 21.2681 33.576 22.5301 33.2297 23.75H27.2125C27.5959 21.2647 27.5959 18.7353 27.2125 16.25H33.2297C33.576 17.4699 33.7511 18.7319 33.75 20ZM15.9375 26.25H24.0625C23.2621 28.8728 21.8725 31.2779 20 33.2812C18.1284 31.2772 16.7389 28.8724 15.9375 26.25ZM15.3281 23.75C14.8989 21.2684 14.8989 18.7316 15.3281 16.25H24.6844C25.1137 18.7316 25.1137 21.2684 24.6844 23.75H15.3281ZM6.25001 20C6.2489 18.7319 6.42401 17.4699 6.77032 16.25H12.7875C12.4041 18.7353 12.4041 21.2647 12.7875 23.75H6.77032C6.42401 22.5301 6.2489 21.2681 6.25001 20ZM24.0625 13.75H15.9375C16.7379 11.1272 18.1275 8.72213 20 6.71875C21.8716 8.72279 23.2611 11.1276 24.0625 13.75ZM32.2391 13.75H26.6734C25.9719 11.1764 24.7896 8.75891 23.1891 6.625C25.123 7.08958 26.9336 7.96684 28.4967 9.19665C30.0599 10.4265 31.3386 11.9797 32.2453 13.75H32.2391ZM16.8109 6.625C15.2104 8.75891 14.0281 11.1764 13.3266 13.75H7.75469C8.66137 11.9797 9.94011 10.4265 11.5033 9.19665C13.0664 7.96684 14.877 7.08958 16.8109 6.625ZM7.75469 26.25H13.3266C14.0281 28.8236 15.2104 31.2411 16.8109 33.375C14.877 32.9104 13.0664 32.0332 11.5033 30.8034C9.94011 29.5735 8.66137 28.0203 7.75469 26.25ZM23.1891 33.375C24.7896 31.2411 25.9719 28.8236 26.6734 26.25H32.2453C31.3386 28.0203 30.0599 29.5735 28.4967 30.8034C26.9336 32.0332 25.123 32.9104 23.1891 33.375Z" fill="black"/>
</svg>
