<svg width="40" height="40" viewBox="0 0 40 40" fill="none" xmlns="http://www.w3.org/2000/svg">
<path d="M21.875 28.125C21.875 28.4958 21.765 28.8584 21.559 29.1667C21.353 29.475 21.0601 29.7154 20.7175 29.8573C20.3749 29.9992 19.9979 30.0363 19.6342 29.964C19.2705 29.8916 18.9364 29.713 18.6742 29.4508C18.412 29.1886 18.2334 28.8545 18.161 28.4908C18.0887 28.1271 18.1258 27.7501 18.2677 27.4075C18.4096 27.0649 18.65 26.772 18.9583 26.566C19.2666 26.36 19.6292 26.25 20 26.25C20.4973 26.25 20.9742 26.4475 21.3258 26.7992C21.6775 27.1508 21.875 27.6277 21.875 28.125ZM20 11.25C16.5531 11.25 13.75 13.7734 13.75 16.875V17.5C13.75 17.8315 13.8817 18.1495 14.1161 18.3839C14.3505 18.6183 14.6685 18.75 15 18.75C15.3315 18.75 15.6495 18.6183 15.8839 18.3839C16.1183 18.1495 16.25 17.8315 16.25 17.5V16.875C16.25 15.1562 17.9328 13.75 20 13.75C22.0672 13.75 23.75 15.1562 23.75 16.875C23.75 18.5938 22.0672 20 20 20C19.6685 20 19.3505 20.1317 19.1161 20.3661C18.8817 20.6005 18.75 20.9185 18.75 21.25V22.5C18.75 22.8315 18.8817 23.1495 19.1161 23.3839C19.3505 23.6183 19.6685 23.75 20 23.75C20.3315 23.75 20.6495 23.6183 20.8839 23.3839C21.1183 23.1495 21.25 22.8315 21.25 22.5V22.3875C24.1 21.8641 26.25 19.5906 26.25 16.875C26.25 13.7734 23.4469 11.25 20 11.25ZM36.25 20C36.25 23.2139 35.297 26.3557 33.5114 29.028C31.7258 31.7003 29.1879 33.7831 26.2186 35.013C23.2493 36.243 19.982 36.5648 16.8298 35.9378C13.6776 35.3107 10.7821 33.7631 8.50951 31.4905C6.23691 29.2179 4.68925 26.3224 4.06224 23.1702C3.43523 20.018 3.75703 16.7507 4.98696 13.7814C6.21688 10.8121 8.29968 8.27419 10.972 6.48862C13.6443 4.70305 16.7861 3.75 20 3.75C24.3084 3.75455 28.439 5.46806 31.4855 8.51454C34.5319 11.561 36.2454 15.6916 36.25 20ZM33.75 20C33.75 17.2805 32.9436 14.6221 31.4327 12.3609C29.9218 10.0997 27.7744 8.33736 25.2619 7.29666C22.7494 6.25595 19.9847 5.98366 17.3175 6.5142C14.6503 7.04475 12.2003 8.35431 10.2773 10.2773C8.35431 12.2003 7.04475 14.6503 6.5142 17.3175C5.98365 19.9847 6.25595 22.7494 7.29666 25.2619C8.33736 27.7744 10.0997 29.9218 12.3609 31.4327C14.6221 32.9436 17.2805 33.75 20 33.75C23.6455 33.7459 27.1404 32.2959 29.7182 29.7182C32.2959 27.1404 33.7459 23.6455 33.75 20Z" fill="black"/>
</svg>
