<svg width="35" height="35" viewBox="0 0 35 35" fill="none" xmlns="http://www.w3.org/2000/svg">
<path d="M19.2507 5.17058V33.5672C19.2521 33.755 19.2078 33.9411 19.1204 34.1149C19.0331 34.2887 18.9044 34.4467 18.7418 34.5799C18.5791 34.713 18.3858 34.8187 18.1728 34.8908C17.9598 34.9629 17.7314 35 17.5008 35C17.2701 35 17.0417 34.9629 16.8288 34.8908C16.6158 34.8187 16.4224 34.713 16.2598 34.5799C16.0971 34.4467 15.9685 34.2887 15.8811 34.1149C15.7938 33.9411 15.7495 33.755 15.7508 33.5672V5.17058L2.99001 16.2078C2.83262 16.3478 2.64119 16.4595 2.42789 16.5359C2.21459 16.6123 1.98409 16.6518 1.75104 16.6518C1.518 16.6518 1.2875 16.6123 1.0742 16.5359C0.860902 16.4595 0.669473 16.3478 0.512082 16.2078C0.182752 15.9161 0 15.5343 0 15.138C0 14.7418 0.182752 14.36 0.512082 14.0682L16.2618 0.443989C16.4192 0.304073 16.6106 0.192346 16.8239 0.115909C17.0372 0.039473 17.2677 0 17.5008 0C17.7338 0 17.9643 0.039473 18.1776 0.115909C18.3909 0.192346 18.5824 0.304073 18.7398 0.443989L34.4895 14.0682C34.8179 14.3598 35 14.741 35 15.1366C35 15.5322 34.8179 15.9134 34.4895 16.205C34.3321 16.3449 34.1407 16.4567 33.9274 16.5331C33.7141 16.6095 33.4836 16.649 33.2505 16.649C33.0175 16.649 32.787 16.6095 32.5737 16.5331C32.3604 16.4567 32.1689 16.3449 32.0115 16.205L19.2507 5.17346V5.17058Z" fill="black"/>
</svg>
